<svg id="Layer_6" data-name="Layer 6" xmlns="http://www.w3.org/2000/svg" viewBox="0 0 1467.3 213.57"><defs><style>.cls-1{fill:#00c4b5;}.cls-2{fill:#ff5757;}.cls-3{fill:#fff;}</style></defs><path class="cls-1" d="M507,399l52.75.29q41.34,0,72.71,29.8t31.36,73.28q0,43.48-30.65,74.56T558.93,608H506.75q-17.4,0-21.67-7.13-3.42-6-3.42-18.25V424.05a81.1,81.1,0,0,1,.43-10,22.86,22.86,0,0,1,2.7-7.42Q488.79,399,507,399Zm89.82,143.29q16.53-15.25,16.53-38.35t-16.11-38.64q-16.11-15.54-37.78-15.54H532.13V557.49h27.66Q580.31,557.49,596.86,542.24Z" transform="translate(-219.06 -397.53)"/><path class="cls-1" d="M932.47,400.38q19.1,6.84,19.1,18.25,0,3.71-3.42,14L893.4,590.85a29.72,29.72,0,0,1-2,4.85c-1,1.9-3.47,4.42-7.56,7.56a24.84,24.84,0,0,1-29.08,0c-4.1-3.14-6.8-6.23-8.13-9.27l-33.36-98.37q-31.65,93.52-32.22,95.23a25,25,0,0,1-2.57,4.85,33,33,0,0,1-4.56,5.7A21.39,21.39,0,0,1,758.24,608q-9.12,0-15-4.27t-7.84-8.56l-2-4.28-55-158.25q-3.14-9.41-3.13-14,0-11.4,19.1-18a46.44,46.44,0,0,1,15-2.86q6.7,0,10.27,4.57t6.41,14l31.37,95.23,31.08-93.81q4-12,14.54-16.53a29.82,29.82,0,0,1,11.84-2,22.16,22.16,0,0,1,13.54,4.7q6.27,4.71,8,9.27l32.79,98.95,31.37-95.81q2.28-6.56,3.71-9.7a17.13,17.13,0,0,1,5.27-6.13,15.13,15.13,0,0,1,9.55-3A39.61,39.61,0,0,1,932.47,400.38Z" transform="translate(-219.06 -397.53)"/><path class="cls-1" d="M1017.72,557.78h87.82a81.58,81.58,0,0,1,9.84.43,22.91,22.91,0,0,1,7.56,2.7q7.69,4,7.7,22.25,0,20-10.55,23.38-4.86,1.71-14.83,1.71H992.34q-20,0-23.38-10.84-1.71-4.56-1.71-14.54V424.33q0-14.54,5.42-19.82t20.53-5.27h112.34a81.58,81.58,0,0,1,9.84.43,22.73,22.73,0,0,1,7.56,2.71q7.69,4,7.7,22.24,0,20-10.55,23.38-4.86,1.71-14.83,1.71h-87.54v28.8h56.46a81.81,81.81,0,0,1,9.84.43,22.76,22.76,0,0,1,7.55,2.71q7.71,4,7.7,22.24,0,20-10.83,23.38-4.86,1.71-14.83,1.71h-55.89Z" transform="translate(-219.06 -397.53)"/><path class="cls-1" d="M1199.64,566.05h77.56q9.4,0,13.68,2.14a10.84,10.84,0,0,1,5.71,6.7,52.39,52.39,0,0,1,0,24.23c-1,3-2.57,5.14-4.85,6.28q-5.43,2.85-14.83,2.85H1174.26q-20,0-23.38-10.84-1.71-4.56-1.71-14.54V424.33a84.47,84.47,0,0,1,.42-9.84,23,23,0,0,1,2.71-7.55q4-7.69,22.24-7.7,20,0,23.67,10.55,1.43,4.84,1.43,14.83Z" transform="translate(-219.06 -397.53)"/><path class="cls-1" d="M1367,566.05h77.56q9.4,0,13.69,2.14a10.8,10.8,0,0,1,5.7,6.7,52,52,0,0,1,0,24.23,9.83,9.83,0,0,1-4.85,6.28q-5.41,2.85-14.82,2.85H1341.63q-20,0-23.38-10.84-1.71-4.56-1.71-14.54V424.33a81.81,81.81,0,0,1,.43-9.84,22.76,22.76,0,0,1,2.71-7.55q4-7.69,22.24-7.7,19.95,0,23.67,10.55,1.42,4.84,1.42,14.83Z" transform="translate(-219.06 -397.53)"/><path class="cls-1" d="M1604.53,414.07l77,159.11q4.85,9.69,4.85,14.54,0,10.26-16.54,18.53-9.69,4.85-15.26,4.85a15.25,15.25,0,0,1-9.12-2.57,16.9,16.9,0,0,1-5.13-5.41q-1.58-2.85-4.42-8.56l-14.83-30.79h-79l-14.83,30.79q-2.85,5.72-4.42,8.27a20.56,20.56,0,0,1-5.13,5.28,14.71,14.71,0,0,1-9.13,2.7q-5.55,0-15.25-4.84-16.55-8-16.54-18.25,0-4.85,4.85-14.54l77-159.4a25,25,0,0,1,9.56-10.55,25.21,25.21,0,0,1,13.54-4Q1597.13,399.24,1604.53,414.07Zm-23.09,68.43-18.82,39.06h37.92Z" transform="translate(-219.06 -397.53)"/><path class="cls-2" d="M327.09,407.85,221.38,583.26a16,16,0,0,0,13.68,24.22H446.48a16,16,0,0,0,13.69-24.22L354.45,407.85A16,16,0,0,0,327.09,407.85Z" transform="translate(-219.06 -397.53)"/><path class="cls-3" d="M334,458.81l-33.14,55a8.12,8.12,0,0,0,6.95,12.31h66.28a8.12,8.12,0,0,0,7-12.31l-33.14-55A8.12,8.12,0,0,0,334,458.81Z" transform="translate(-219.06 -397.53)"/></svg>